# xmcd
#
# Track frame offsets:
#	150
#	13129
#	25566
#	37461
#	49890
#	61687
#	74818
#	89406
#	100433
#	114872
#	129744
#	139959
#	154199
#	167036
#	179783
#	192810
#	205528
#	219102
#	233087
#	243724
#	255929
#	268907
#	281365
#	292337
#	304298
#
# Disc length: 4213 seconds
#
# Revision: 2
# Processed by: cddbd v1.4PL0 Copyright (c) Steve Scherf et al.
# Submitted via: Gronk 1.4
#
DISCID=80107319
DTITLE=brown mcghee - the same ol' diddley-dee, from blues to r&b compilation
DYEAR=2001
DGENRE=blues
TTITLE0=easy ridin' buggy
TTITLE1=women lover blues
TTITLE2=brownie's guitar boogie
TTITLE3=big legged woman
TTITLE4=evil but kindhearted
TTITLE5=b.m. blues
TTITLE6=dissatisfied woman
TTITLE7=loving with a feeling
TTITLE8=night time is the right time
TTITLE9=how can i love you
TTITLE10=hello blues
TTITLE11=pawnshop blues
TTITLE12=country boy boogie
TTITLE13=running away from love
TTITLE14=mabelle
TTITLE15=poorboy blues
TTITLE16=wrong man blues
TTITLE17=married woman blues
TTITLE18=robbie-doby boogie
TTITLE19=my fault
TTITLE20=hard bed blues
TTITLE21=my bulldog blues
TTITLE22=gin headed woman
TTITLE23=i was fooled
TTITLE24=confused
EXTD=
EXTT0=
EXTT1=
EXTT2=
EXTT3=
EXTT4=
EXTT5=
EXTT6=
EXTT7=
EXTT8=
EXTT9=
EXTT10=
EXTT11=
EXTT12=
EXTT13=
EXTT14=
EXTT15=
EXTT16=
EXTT17=
EXTT18=
EXTT19=
EXTT20=
EXTT21=
EXTT22=
EXTT23=
EXTT24=
PLAYORDER=
